<?xml version="1.0" standalone="no"?>
<!DOCTYPE svg PUBLIC "-//W3C//DTD SVG 20010904//EN"
 "http://www.w3.org/TR/2001/REC-SVG-20010904/DTD/svg10.dtd">
<svg version="1.0" xmlns="http://www.w3.org/2000/svg"
 width="801.000000pt" height="801.000000pt" viewBox="0 0 801.000000 801.000000"
 preserveAspectRatio="xMidYMid meet">

<g transform="translate(0.000000,801.000000) scale(0.100000,-0.100000)"
fill="#000000" stroke="none">
<path d="M3619 7978 c-7 -13 -70 -116 -141 -231 l-129 -207 -217 164 c-144
109 -219 161 -224 153 -3 -7 -48 -120 -99 -252 -51 -132 -93 -241 -94 -243 -2
-2 -112 51 -245 118 -133 67 -243 120 -245 118 -2 -2 -24 -118 -50 -258 -26
-140 -48 -260 -50 -266 -2 -8 -92 14 -262 62 -142 41 -259 74 -260 74 -2 0 -3
-121 -3 -269 0 -149 -3 -272 -7 -274 -5 -3 -126 7 -271 20 -145 14 -265 23
-267 21 -2 -1 19 -122 46 -267 26 -146 47 -266 46 -267 -1 -1 -121 -14 -265
-27 -145 -14 -266 -27 -268 -30 -3 -3 38 -117 90 -253 52 -137 92 -252 88
-255 -4 -4 -119 -39 -256 -78 -137 -38 -251 -72 -253 -75 -2 -2 57 -105 133
-227 75 -123 139 -227 141 -231 2 -3 -105 -62 -237 -130 -132 -68 -239 -126
-237 -130 1 -4 82 -95 181 -203 98 -108 175 -200 170 -204 -5 -5 -103 -79
-217 -166 -170 -128 -206 -160 -195 -170 7 -7 101 -79 208 -160 107 -81 199
-151 203 -155 5 -4 -73 -97 -172 -206 -99 -110 -181 -201 -181 -204 0 -3 108
-59 240 -125 140 -70 238 -125 236 -131 -2 -6 -66 -111 -140 -232 -75 -121
-136 -222 -136 -225 0 -2 116 -37 258 -77 141 -40 258 -74 260 -76 2 -1 -40
-115 -93 -254 -53 -138 -95 -254 -92 -256 2 -2 123 -16 267 -29 145 -14 265
-27 267 -28 1 -2 -20 -122 -47 -267 -26 -146 -47 -266 -45 -268 1 -1 121 8
266 22 145 14 267 22 271 20 4 -3 8 -127 8 -276 0 -212 3 -269 12 -265 7 2 89
26 181 52 126 36 167 51 163 62 -15 37 -47 309 -57 478 -17 281 -2 508 52 795
28 148 91 388 143 543 24 73 47 149 50 170 6 34 5 37 -18 37 -26 0 -419 -188
-498 -239 -26 -16 -54 -40 -62 -54 -15 -22 -14 -28 16 -95 37 -84 33 -113 -21
-149 -63 -43 -129 -20 -176 61 -15 25 -29 46 -31 46 -2 0 -15 -21 -28 -47 -36
-72 -69 -98 -122 -98 -63 0 -99 37 -99 103 0 26 4 60 8 75 l8 29 -39 -7 c-55
-9 -112 9 -147 45 -26 27 -30 39 -30 85 0 39 5 59 20 75 26 30 92 60 131 60
44 0 47 9 18 47 -54 71 -55 118 -3 177 52 60 117 57 204 -10 l44 -33 218 156
c370 265 564 414 660 506 133 128 129 111 125 532 -1 202 2 379 8 435 40 343
175 639 448 979 51 63 92 121 92 127 0 18 -27 36 -164 109 -134 72 -157 91
-186 150 -40 84 -16 167 62 207 114 59 187 31 433 -172 33 -27 87 -64 120 -82
l60 -33 191 0 190 0 -4 -142 c-3 -78 -1 -158 2 -178 l7 -36 100 105 c91 96
194 184 204 175 2 -2 20 -54 39 -116 46 -140 82 -223 90 -203 61 168 108 284
148 364 l50 99 56 -63 c118 -132 291 -243 430 -274 l63 -15 -25 32 c-89 110
-242 316 -263 352 l-24 44 43 5 c24 3 88 8 143 12 184 12 268 55 356 185 64
95 155 186 203 204 98 37 206 -38 206 -143 0 -69 -52 -153 -171 -277 -60 -63
-109 -119 -109 -126 0 -7 37 -51 83 -98 91 -94 138 -159 215 -296 68 -121 120
-251 246 -620 225 -652 262 -745 300 -745 41 0 347 281 463 425 81 102 213
297 213 316 0 8 -25 37 -55 63 -46 40 -55 52 -55 81 0 25 7 39 27 55 34 26 77
21 135 -18 39 -25 41 -26 54 -7 8 10 14 40 14 65 0 51 16 73 60 83 55 13 100
-25 100 -86 0 -13 6 -31 14 -42 13 -18 15 -17 70 5 65 27 96 22 129 -21 25
-35 16 -76 -28 -129 -19 -23 -32 -46 -29 -53 3 -7 23 -24 44 -39 80 -56 59
-148 -35 -148 -13 0 -52 9 -86 20 -35 10 -67 16 -70 12 -4 -4 -53 -97 -109
-206 -162 -317 -343 -608 -495 -795 -33 -40 -70 -87 -82 -105 l-22 -31 130
-395 c307 -932 380 -1273 366 -1721 l-5 -177 71 -6 c40 -4 96 -9 125 -12 40
-5 52 -3 52 7 -1 8 -22 130 -49 271 -26 142 -45 258 -42 258 21 0 535 51 536
53 2 1 -40 112 -91 246 -52 134 -94 249 -94 256 0 6 110 43 260 85 168 48 257
77 252 84 -3 6 -68 111 -144 234 l-137 222 245 123 246 123 -185 204 -185 203
131 100 c238 181 297 228 296 235 0 4 -94 78 -210 165 -115 87 -209 161 -209
166 0 4 81 97 181 207 l180 198 -245 123 -246 123 64 102 c35 57 99 162 144
234 l80 132 -256 72 c-141 40 -260 75 -263 77 -4 1 37 116 91 255 54 139 96
254 95 256 -1 1 -121 14 -266 28 -145 14 -266 27 -268 30 -3 3 17 122 43 265
26 144 45 263 43 266 -4 4 -416 -30 -499 -42 l-38 -5 0 275 c0 151 -3 275 -7
275 -5 0 -123 -34 -263 -74 -140 -41 -256 -73 -257 -72 -1 1 -23 114 -48 251
-25 138 -49 258 -53 267 -6 16 -38 2 -250 -102 -235 -116 -243 -119 -251 -97
-40 104 -166 429 -176 454 l-14 33 -201 -153 c-110 -83 -209 -158 -218 -164
-16 -11 -32 11 -157 213 -77 124 -143 228 -147 230 -4 3 -89 -86 -189 -196
-101 -110 -186 -197 -190 -193 -177 198 -353 389 -359 391 -5 2 -14 -7 -21
-20z"/>
<path d="M5103 4960 c-15 -22 -90 -103 -166 -180 -119 -120 -137 -142 -128
-159 23 -41 42 -35 111 37 36 38 70 71 76 73 17 6 127 137 163 193 23 38 28
53 20 63 -20 23 -47 14 -76 -27z"/>
<path d="M3153 4960 c-13 -5 -23 -16 -23 -24 0 -18 39 -29 170 -50 52 -9 129
-26 170 -39 l75 -23 -137 4 c-123 4 -138 3 -144 -12 -13 -35 13 -41 205 -47
181 -7 191 -8 291 -43 140 -49 156 -48 105 5 -58 59 -141 101 -310 157 -189
62 -353 92 -402 72z"/>
<path d="M5096 4505 c-15 -8 -32 -12 -37 -9 -33 20 -97 -75 -105 -154 -6 -57
9 -88 56 -120 92 -62 247 36 258 162 5 66 -13 98 -69 120 -49 20 -66 20 -103
1z m78 -139 c9 -13 7 -20 -8 -32 -11 -8 -27 -14 -37 -14 -15 0 -15 2 0 35 17
37 28 39 45 11z"/>
<path d="M3755 4458 c-31 -16 -105 -90 -120 -118 -11 -22 -19 -72 -16 -107 1
-6 25 -25 54 -41 28 -16 79 -45 111 -65 69 -42 111 -47 150 -16 70 55 79 158
20 229 -15 18 -24 37 -20 46 9 22 -10 51 -44 69 -34 17 -106 19 -135 3z m62
-162 c29 -14 86 -76 79 -84 -2 -1 -45 22 -96 51 -51 30 -86 57 -79 59 17 6 55
-4 96 -26z"/>
<path d="M5571 4137 c-31 -16 -59 -53 -76 -103 -13 -38 -15 -39 -64 -42 -28
-2 -72 2 -98 7 -26 6 -73 16 -103 22 -30 6 -80 20 -111 30 -31 10 -64 19 -73
19 -10 0 -50 11 -89 24 -101 35 -192 50 -217 36 -31 -17 -24 -38 18 -49 20 -5
114 -30 207 -56 94 -25 197 -50 230 -55 33 -5 85 -13 115 -19 30 -5 77 -12
104 -16 l48 -7 -6 -39 c-4 -22 -1 -59 5 -82 10 -40 59 -99 89 -109 17 -5 -17
-39 -125 -122 -71 -56 -123 -79 -321 -146 -61 -21 -124 -45 -140 -53 -16 -8
-103 -29 -193 -46 -91 -18 -173 -37 -183 -42 -26 -14 -22 -38 7 -45 41 -10
261 35 422 88 254 82 433 178 573 306 26 23 56 42 67 42 39 0 123 31 154 57
17 15 45 56 60 91 44 98 38 175 -19 235 -35 37 -63 51 -140 71 -76 19 -109 20
-141 3z"/>
</g>
</svg>
